<mxfile host="app.diagrams.net" modified="2024-04-28T11:15:14.933Z" agent="Mozilla/5.0 (X11; Linux x86_64; rv:125.0) Gecko/20100101 Firefox/125.0" etag="LSuIZaZhFB9rT6YALLto" version="24.3.1" type="github">
  <diagram name="Sida-1" id="EhUlgzo_dybfGtry_Jew">
    <mxGraphModel dx="1434" dy="735" grid="1" gridSize="10" guides="1" tooltips="1" connect="1" arrows="1" fold="1" page="1" pageScale="1" pageWidth="827" pageHeight="1169" math="0" shadow="0">
      <root>
        <mxCell id="0" />
        <mxCell id="1" parent="0" />
        <mxCell id="zyoh9W_vY74iXswg5kAb-7" value="" style="edgeStyle=orthogonalEdgeStyle;rounded=0;orthogonalLoop=1;jettySize=auto;html=1;" edge="1" parent="1" source="zLM3MezMvydmQuZFzrpa-1" target="zLM3MezMvydmQuZFzrpa-2">
          <mxGeometry relative="1" as="geometry" />
        </mxCell>
        <mxCell id="zLM3MezMvydmQuZFzrpa-1" value="Build triggas i pipeline" style="ellipse;whiteSpace=wrap;html=1;" parent="1" vertex="1">
          <mxGeometry x="320" y="50" width="160" height="80" as="geometry" />
        </mxCell>
        <mxCell id="zyoh9W_vY74iXswg5kAb-11" style="edgeStyle=orthogonalEdgeStyle;rounded=0;orthogonalLoop=1;jettySize=auto;html=1;entryX=0.5;entryY=0;entryDx=0;entryDy=0;" edge="1" parent="1" source="zLM3MezMvydmQuZFzrpa-2" target="zLM3MezMvydmQuZFzrpa-3">
          <mxGeometry relative="1" as="geometry">
            <Array as="points">
              <mxPoint x="280" y="180" />
            </Array>
          </mxGeometry>
        </mxCell>
        <mxCell id="zLM3MezMvydmQuZFzrpa-2" value="Bygg Go-applikation" style="rounded=0;whiteSpace=wrap;html=1;" parent="1" vertex="1">
          <mxGeometry x="340" y="150" width="120" height="60" as="geometry" />
        </mxCell>
        <mxCell id="zyoh9W_vY74iXswg5kAb-21" style="edgeStyle=orthogonalEdgeStyle;rounded=0;orthogonalLoop=1;jettySize=auto;html=1;" edge="1" parent="1" source="zLM3MezMvydmQuZFzrpa-3" target="zLM3MezMvydmQuZFzrpa-4">
          <mxGeometry relative="1" as="geometry" />
        </mxCell>
        <mxCell id="zLM3MezMvydmQuZFzrpa-3" value="Ladda ner senaste modeller" style="rounded=0;whiteSpace=wrap;html=1;" parent="1" vertex="1">
          <mxGeometry x="220" y="230" width="120" height="60" as="geometry" />
        </mxCell>
        <mxCell id="zyoh9W_vY74iXswg5kAb-22" style="edgeStyle=orthogonalEdgeStyle;rounded=0;orthogonalLoop=1;jettySize=auto;html=1;" edge="1" parent="1" source="zLM3MezMvydmQuZFzrpa-4" target="zLM3MezMvydmQuZFzrpa-5">
          <mxGeometry relative="1" as="geometry" />
        </mxCell>
        <mxCell id="zLM3MezMvydmQuZFzrpa-4" value="&lt;div&gt;Dra ner image med machine learning-app&lt;/div&gt;" style="rounded=0;whiteSpace=wrap;html=1;" parent="1" vertex="1">
          <mxGeometry x="220" y="310" width="120" height="60" as="geometry" />
        </mxCell>
        <mxCell id="zyoh9W_vY74iXswg5kAb-23" style="edgeStyle=orthogonalEdgeStyle;rounded=0;orthogonalLoop=1;jettySize=auto;html=1;" edge="1" parent="1" source="zLM3MezMvydmQuZFzrpa-5" target="zLM3MezMvydmQuZFzrpa-6">
          <mxGeometry relative="1" as="geometry" />
        </mxCell>
        <mxCell id="zLM3MezMvydmQuZFzrpa-5" value="&lt;div&gt;Bygg CLI-applikation&lt;/div&gt;" style="rounded=0;whiteSpace=wrap;html=1;" parent="1" vertex="1">
          <mxGeometry x="220" y="390" width="120" height="60" as="geometry" />
        </mxCell>
        <mxCell id="zyoh9W_vY74iXswg5kAb-24" style="edgeStyle=orthogonalEdgeStyle;rounded=0;orthogonalLoop=1;jettySize=auto;html=1;" edge="1" parent="1" source="zLM3MezMvydmQuZFzrpa-6" target="zyoh9W_vY74iXswg5kAb-1">
          <mxGeometry relative="1" as="geometry" />
        </mxCell>
        <mxCell id="zLM3MezMvydmQuZFzrpa-6" value="&lt;div&gt;Pusha image till Container Registry&lt;/div&gt;" style="rounded=0;whiteSpace=wrap;html=1;" parent="1" vertex="1">
          <mxGeometry x="220" y="470" width="120" height="60" as="geometry" />
        </mxCell>
        <mxCell id="zyoh9W_vY74iXswg5kAb-26" style="edgeStyle=orthogonalEdgeStyle;rounded=0;orthogonalLoop=1;jettySize=auto;html=1;" edge="1" parent="1" source="zLM3MezMvydmQuZFzrpa-7" target="zyoh9W_vY74iXswg5kAb-25">
          <mxGeometry relative="1" as="geometry" />
        </mxCell>
        <mxCell id="zLM3MezMvydmQuZFzrpa-7" value="Pusha image till Container Registry" style="rounded=0;whiteSpace=wrap;html=1;" parent="1" vertex="1">
          <mxGeometry x="460" y="230" width="120" height="60" as="geometry" />
        </mxCell>
        <mxCell id="zyoh9W_vY74iXswg5kAb-14" style="edgeStyle=orthogonalEdgeStyle;rounded=0;orthogonalLoop=1;jettySize=auto;html=1;" edge="1" parent="1" source="zLM3MezMvydmQuZFzrpa-8" target="zLM3MezMvydmQuZFzrpa-9">
          <mxGeometry relative="1" as="geometry" />
        </mxCell>
        <mxCell id="zLM3MezMvydmQuZFzrpa-8" value="&lt;div&gt;Deploya gRPC-server som service till Cloud Run&lt;/div&gt;" style="rounded=0;whiteSpace=wrap;html=1;" parent="1" vertex="1">
          <mxGeometry x="460" y="413" width="120" height="60" as="geometry" />
        </mxCell>
        <mxCell id="zyoh9W_vY74iXswg5kAb-15" style="edgeStyle=orthogonalEdgeStyle;rounded=0;orthogonalLoop=1;jettySize=auto;html=1;" edge="1" parent="1" source="zLM3MezMvydmQuZFzrpa-9" target="zLM3MezMvydmQuZFzrpa-10">
          <mxGeometry relative="1" as="geometry" />
        </mxCell>
        <mxCell id="zLM3MezMvydmQuZFzrpa-9" value="Request: Träna modeller" style="ellipse;whiteSpace=wrap;html=1;" parent="1" vertex="1">
          <mxGeometry x="440" y="494" width="160" height="80" as="geometry" />
        </mxCell>
        <mxCell id="zyoh9W_vY74iXswg5kAb-16" style="edgeStyle=orthogonalEdgeStyle;rounded=0;orthogonalLoop=1;jettySize=auto;html=1;" edge="1" parent="1" source="zLM3MezMvydmQuZFzrpa-10" target="zLM3MezMvydmQuZFzrpa-11">
          <mxGeometry relative="1" as="geometry" />
        </mxCell>
        <mxCell id="zLM3MezMvydmQuZFzrpa-10" value="Server startas" style="rounded=0;whiteSpace=wrap;html=1;" parent="1" vertex="1">
          <mxGeometry x="460" y="593" width="120" height="60" as="geometry" />
        </mxCell>
        <mxCell id="zyoh9W_vY74iXswg5kAb-17" style="edgeStyle=orthogonalEdgeStyle;rounded=0;orthogonalLoop=1;jettySize=auto;html=1;" edge="1" parent="1" source="zLM3MezMvydmQuZFzrpa-11" target="zyoh9W_vY74iXswg5kAb-3">
          <mxGeometry relative="1" as="geometry" />
        </mxCell>
        <mxCell id="zLM3MezMvydmQuZFzrpa-11" value="Hämta image från Container Registry" style="rounded=0;whiteSpace=wrap;html=1;" parent="1" vertex="1">
          <mxGeometry x="460" y="673" width="120" height="60" as="geometry" />
        </mxCell>
        <mxCell id="zyoh9W_vY74iXswg5kAb-20" style="edgeStyle=orthogonalEdgeStyle;rounded=0;orthogonalLoop=1;jettySize=auto;html=1;startArrow=classic;startFill=1;" edge="1" parent="1" source="zyoh9W_vY74iXswg5kAb-1" target="zLM3MezMvydmQuZFzrpa-11">
          <mxGeometry relative="1" as="geometry">
            <Array as="points">
              <mxPoint x="280" y="700" />
            </Array>
          </mxGeometry>
        </mxCell>
        <mxCell id="zyoh9W_vY74iXswg5kAb-1" value="" style="editableCssRules=.*;html=1;shape=image;verticalLabelPosition=bottom;labelBackgroundColor=#ffffff;verticalAlign=top;aspect=fixed;imageAspect=0;image=data:image/svg+xml,PHN2ZyB4bWxucz0iaHR0cDovL3d3dy53My5vcmcvMjAwMC9zdmciIHhtbG5zOnY9Imh0dHBzOi8vdmVjdGEuaW8vbmFubyIgd2lkdGg9IjM3Ny4xNTkzMDIxNjAyNjMwNSIgaGVpZ2h0PSIzMzYuMTYyNDk5MDAzMzEwOCIgdmlld0JveD0iLTAuMDU4MDAwMDA1NzgxNjUwNTQgMC4xMTI5OTk5OTgwMzMwNDY3MiA5OS43OTAwMDA5MTU1MjczNCA4OC45NDMwMDA3OTM0NTcwMyI+JiN4YTs8c3R5bGUgdHlwZT0idGV4dC9jc3MiPiYjeGE7CS5zdDB7ZmlsbDojNjY5ZGY2O30mI3hhOwkuc3Qxe2ZpbGw6I2FlY2JmYTt9JiN4YTsJLnN0MntmaWxsOiM0Mjg1ZjQ7fSYjeGE7PC9zdHlsZT4mI3hhOwk8cGF0aCBjbGFzcz0ic3QwIiBkPSJNNTMuMjQzIDYyLjA5VjQ3LjA5NGwxMy4yMDEgOC40MTZ2MTUuMDM4em0tMzMuMDIxIDBWNDcuMDk0bDEzLjIwMSA4LjQxNnYxNS4wMzh6bTE2LjUxMS0zMi4yODVWMTQuODFsMTMuMjAxIDguNDE2djE1LjAzOHptNjIuOTk5IDMzLjk2VjI1LjQwM2wtOS41NjItMS44ODR2NDIuMTMxem0tOTkuNzg4IDBWMjUuNDAzbDkuNTYyLTEuODg0djQyLjEzMXoiLz4mI3hhOwk8cGF0aCBjbGFzcz0ic3QxIiBkPSJNNTMuMTg1IDQ3LjA5NGwxMy4yNTgtOC4yODcgMTMuMDE2IDguMjM0LTEzLjAxNiA4LjQ2OXptLTMzLjAyMSAwbDEzLjI1OC04LjI4NyAxMy4wMTYgOC4yMzQtMTMuMDE2IDguNDY5ek0zNi42NzUgMTQuODFsMTMuMjU4LTguMjg3IDEzLjAxNiA4LjIzNC0xMy4wMTYgOC40Njl6bTYzLjA1NiA0OC45NTZ2MTIuMjE3TDc3LjAxIDg5LjA1NVY3Ny43NTJ6bTAtMzguMzYzVjEzLjE4Nkw3Ny4wMS4xMTN2MTEuMzAzek0tLjA1OCA2My43NjZ2MTIuMjE3bDIyLjcyMSAxMy4wNzNWNzcuNzUyem0wLTM4LjM2M1YxMy4xODZMMjIuNjYzLjExM3YxMS4zMDN6Ii8+JiN4YTsJPHBhdGggY2xhc3M9InN0MiIgZD0iTTY2LjQ0NCA3MC41NDdWNTUuNTFsMTMuMDE2LTguNDY5djE1LjR6bS0zMy4wMjEgMFY1NS41MWwxMy4wMTYtOC40Njl2MTUuNHptMTYuNTExLTMyLjI4NVYyMy4yMjVsMTMuMDE2LTguNDY5djE1LjR6bTQ5Ljc5OCAyNS41MDNsLTkuNTYyIDUuODh2LTMuOTk2em0wLTM4LjM2M2wtOS41NjItNS44OHYzLjk5NnpNLS4wNTggNjMuNzY2bDkuNTYyIDUuODh2LTMuOTk2em0wLTM4LjM2M2w5LjU2Mi01Ljg4djMuOTk2eiIvPiYjeGE7PC9zdmc+;" vertex="1" parent="1">
          <mxGeometry x="232.78" y="557.5" width="94.44" height="85" as="geometry" />
        </mxCell>
        <mxCell id="zyoh9W_vY74iXswg5kAb-29" style="edgeStyle=orthogonalEdgeStyle;rounded=0;orthogonalLoop=1;jettySize=auto;html=1;startArrow=classic;startFill=1;" edge="1" parent="1" source="zyoh9W_vY74iXswg5kAb-2" target="zLM3MezMvydmQuZFzrpa-3">
          <mxGeometry relative="1" as="geometry" />
        </mxCell>
        <mxCell id="zyoh9W_vY74iXswg5kAb-2" value="" style="editableCssRules=.*;html=1;shape=image;verticalLabelPosition=bottom;labelBackgroundColor=#ffffff;verticalAlign=top;aspect=fixed;imageAspect=0;image=data:image/svg+xml,PHN2ZyB4bWxucz0iaHR0cDovL3d3dy53My5vcmcvMjAwMC9zdmciIHhtbG5zOnY9Imh0dHBzOi8vdmVjdGEuaW8vbmFubyIgd2lkdGg9IjIwIiBoZWlnaHQ9IjE2IiB2aWV3Qm94PSIwIDAgMjAgMTYiPiYjeGE7CTxzdHlsZSB0eXBlPSJ0ZXh0L2NzcyI+JiN4YTsJLnN0MHtmaWxsOiM0Mjg1ZjQ7fSYjeGE7CS5zdDF7ZmlsbDojNjY5ZGY2O30mI3hhOwkuc3Qye2ZpbGw6I2FlY2JmYTt9JiN4YTsJLnN0M3tmaWxsOiNmZmY7fSYjeGE7CTwvc3R5bGU+JiN4YTsJPHBhdGggY2xhc3M9InN0MiIgZD0iTTAgMGgyMHY3SDB6Ii8+JiN4YTsJPHBhdGggY2xhc3M9InN0MSIgZD0iTTE4IDBoMnY3aC0yeiIvPiYjeGE7CTxwYXRoIGNsYXNzPSJzdDAiIGQ9Ik0xOCA3bDItN2gtMnoiLz4mI3hhOwk8cGF0aCBjbGFzcz0ic3QxIiBkPSJNMCAwaDJ2N0gweiIvPiYjeGE7CTxnIGNsYXNzPSJzdDMiPiYjeGE7CQk8cGF0aCBkPSJNNCAzaDZ2MUg0eiIvPiYjeGE7CQk8cmVjdCB4PSIxMyIgeT0iMiIgd2lkdGg9IjMiIGhlaWdodD0iMyIgcng9IjEuNSIvPiYjeGE7CTwvZz4mI3hhOwk8cGF0aCBjbGFzcz0ic3QyIiBkPSJNMCA5aDIwdjdIMHoiLz4mI3hhOwk8cGF0aCBjbGFzcz0ic3QxIiBkPSJNMTggOWgydjdoLTJ6Ii8+JiN4YTsJPHBhdGggY2xhc3M9InN0MCIgZD0iTTE4IDE2bDItN2gtMnoiLz4mI3hhOwk8cGF0aCBjbGFzcz0ic3QxIiBkPSJNMCA5aDJ2N0gweiIvPiYjeGE7CTxnIGNsYXNzPSJzdDMiPiYjeGE7CQk8cGF0aCBkPSJNNCAxMmg2djFINHoiLz4mI3hhOwkJPHJlY3QgeD0iMTMiIHk9IjExIiB3aWR0aD0iMyIgaGVpZ2h0PSIzIiByeD0iMS41Ii8+JiN4YTsJPC9nPiYjeGE7PC9zdmc+;" vertex="1" parent="1">
          <mxGeometry x="80" y="225" width="87.5" height="70" as="geometry" />
        </mxCell>
        <mxCell id="zyoh9W_vY74iXswg5kAb-18" style="edgeStyle=orthogonalEdgeStyle;rounded=0;orthogonalLoop=1;jettySize=auto;html=1;" edge="1" parent="1" source="zyoh9W_vY74iXswg5kAb-3" target="zyoh9W_vY74iXswg5kAb-4">
          <mxGeometry relative="1" as="geometry" />
        </mxCell>
        <mxCell id="zyoh9W_vY74iXswg5kAb-3" value="Träna modeller" style="rounded=0;whiteSpace=wrap;html=1;" vertex="1" parent="1">
          <mxGeometry x="460" y="753" width="120" height="60" as="geometry" />
        </mxCell>
        <mxCell id="zyoh9W_vY74iXswg5kAb-19" style="edgeStyle=orthogonalEdgeStyle;rounded=0;orthogonalLoop=1;jettySize=auto;html=1;" edge="1" parent="1" source="zyoh9W_vY74iXswg5kAb-4" target="zyoh9W_vY74iXswg5kAb-5">
          <mxGeometry relative="1" as="geometry" />
        </mxCell>
        <mxCell id="zyoh9W_vY74iXswg5kAb-28" style="edgeStyle=orthogonalEdgeStyle;rounded=0;orthogonalLoop=1;jettySize=auto;html=1;" edge="1" parent="1" source="zyoh9W_vY74iXswg5kAb-4" target="zyoh9W_vY74iXswg5kAb-2">
          <mxGeometry relative="1" as="geometry" />
        </mxCell>
        <mxCell id="zyoh9W_vY74iXswg5kAb-4" value="&lt;div&gt;Ladda upp sparade modeller&lt;/div&gt;" style="rounded=0;whiteSpace=wrap;html=1;" vertex="1" parent="1">
          <mxGeometry x="460" y="833" width="120" height="60" as="geometry" />
        </mxCell>
        <mxCell id="zyoh9W_vY74iXswg5kAb-30" style="edgeStyle=orthogonalEdgeStyle;rounded=0;orthogonalLoop=1;jettySize=auto;html=1;entryX=1;entryY=0.5;entryDx=0;entryDy=0;" edge="1" parent="1" source="zyoh9W_vY74iXswg5kAb-5" target="zLM3MezMvydmQuZFzrpa-1">
          <mxGeometry relative="1" as="geometry">
            <Array as="points">
              <mxPoint x="680" y="943" />
              <mxPoint x="680" y="90" />
            </Array>
          </mxGeometry>
        </mxCell>
        <mxCell id="zyoh9W_vY74iXswg5kAb-5" value="Trigga ny build" style="rounded=0;whiteSpace=wrap;html=1;" vertex="1" parent="1">
          <mxGeometry x="460" y="913" width="120" height="60" as="geometry" />
        </mxCell>
        <mxCell id="zyoh9W_vY74iXswg5kAb-10" style="edgeStyle=orthogonalEdgeStyle;rounded=0;orthogonalLoop=1;jettySize=auto;html=1;startArrow=none;startFill=0;" edge="1" parent="1" source="zLM3MezMvydmQuZFzrpa-2" target="zLM3MezMvydmQuZFzrpa-7">
          <mxGeometry relative="1" as="geometry">
            <Array as="points">
              <mxPoint x="520" y="180" />
            </Array>
          </mxGeometry>
        </mxCell>
        <mxCell id="zyoh9W_vY74iXswg5kAb-27" style="edgeStyle=orthogonalEdgeStyle;rounded=0;orthogonalLoop=1;jettySize=auto;html=1;" edge="1" parent="1" source="zyoh9W_vY74iXswg5kAb-25" target="zLM3MezMvydmQuZFzrpa-8">
          <mxGeometry relative="1" as="geometry" />
        </mxCell>
        <mxCell id="zyoh9W_vY74iXswg5kAb-25" value="" style="editableCssRules=.*;html=1;shape=image;verticalLabelPosition=bottom;labelBackgroundColor=#ffffff;verticalAlign=top;aspect=fixed;imageAspect=0;image=data:image/svg+xml,PHN2ZyB4bWxucz0iaHR0cDovL3d3dy53My5vcmcvMjAwMC9zdmciIHhtbG5zOnY9Imh0dHBzOi8vdmVjdGEuaW8vbmFubyIgd2lkdGg9IjM3Ny4xNTkzMDIxNjAyNjMwNSIgaGVpZ2h0PSIzMzYuMTYyNDk5MDAzMzEwOCIgdmlld0JveD0iLTAuMDU4MDAwMDA1NzgxNjUwNTQgMC4xMTI5OTk5OTgwMzMwNDY3MiA5OS43OTAwMDA5MTU1MjczNCA4OC45NDMwMDA3OTM0NTcwMyI+JiN4YTs8c3R5bGUgdHlwZT0idGV4dC9jc3MiPiYjeGE7CS5zdDB7ZmlsbDojNjY5ZGY2O30mI3hhOwkuc3Qxe2ZpbGw6I2FlY2JmYTt9JiN4YTsJLnN0MntmaWxsOiM0Mjg1ZjQ7fSYjeGE7PC9zdHlsZT4mI3hhOwk8cGF0aCBjbGFzcz0ic3QwIiBkPSJNNTMuMjQzIDYyLjA5VjQ3LjA5NGwxMy4yMDEgOC40MTZ2MTUuMDM4em0tMzMuMDIxIDBWNDcuMDk0bDEzLjIwMSA4LjQxNnYxNS4wMzh6bTE2LjUxMS0zMi4yODVWMTQuODFsMTMuMjAxIDguNDE2djE1LjAzOHptNjIuOTk5IDMzLjk2VjI1LjQwM2wtOS41NjItMS44ODR2NDIuMTMxem0tOTkuNzg4IDBWMjUuNDAzbDkuNTYyLTEuODg0djQyLjEzMXoiLz4mI3hhOwk8cGF0aCBjbGFzcz0ic3QxIiBkPSJNNTMuMTg1IDQ3LjA5NGwxMy4yNTgtOC4yODcgMTMuMDE2IDguMjM0LTEzLjAxNiA4LjQ2OXptLTMzLjAyMSAwbDEzLjI1OC04LjI4NyAxMy4wMTYgOC4yMzQtMTMuMDE2IDguNDY5ek0zNi42NzUgMTQuODFsMTMuMjU4LTguMjg3IDEzLjAxNiA4LjIzNC0xMy4wMTYgOC40Njl6bTYzLjA1NiA0OC45NTZ2MTIuMjE3TDc3LjAxIDg5LjA1NVY3Ny43NTJ6bTAtMzguMzYzVjEzLjE4Nkw3Ny4wMS4xMTN2MTEuMzAzek0tLjA1OCA2My43NjZ2MTIuMjE3bDIyLjcyMSAxMy4wNzNWNzcuNzUyem0wLTM4LjM2M1YxMy4xODZMMjIuNjYzLjExM3YxMS4zMDN6Ii8+JiN4YTsJPHBhdGggY2xhc3M9InN0MiIgZD0iTTY2LjQ0NCA3MC41NDdWNTUuNTFsMTMuMDE2LTguNDY5djE1LjR6bS0zMy4wMjEgMFY1NS41MWwxMy4wMTYtOC40Njl2MTUuNHptMTYuNTExLTMyLjI4NVYyMy4yMjVsMTMuMDE2LTguNDY5djE1LjR6bTQ5Ljc5OCAyNS41MDNsLTkuNTYyIDUuODh2LTMuOTk2em0wLTM4LjM2M2wtOS41NjItNS44OHYzLjk5NnpNLS4wNTggNjMuNzY2bDkuNTYyIDUuODh2LTMuOTk2em0wLTM4LjM2M2w5LjU2Mi01Ljg4djMuOTk2eiIvPiYjeGE7PC9zdmc+;" vertex="1" parent="1">
          <mxGeometry x="472.78" y="310" width="94.44" height="85" as="geometry" />
        </mxCell>
      </root>
    </mxGraphModel>
  </diagram>
</mxfile>
